<svg width="195" height="46" viewBox="0 0 195 46" fill="none" xmlns="http://www.w3.org/2000/svg">
<path d="M25.9677 3.2415C25.9677 13.1154 20.8572 20.9391 11.3282 20.9391C1.79924 20.9391 0 36.2306 0 26.3568C0 16.4829 4.58772 9.20091 14.1167 9.20091C23.6457 9.20091 25.9677 -6.63237 25.9677 3.2415Z" fill="white"/>
<path d="M25.9677 19.564C25.9677 29.4379 20.8572 37.2616 11.3282 37.2616C1.79924 37.2616 0 52.5532 0 42.6793C0 32.8054 4.58772 25.5234 14.1167 25.5234C23.6457 25.5234 25.9677 9.69014 25.9677 19.564Z" fill="#570A7B"/>
<path d="M54.63 9.1H58.53V31H55.17L54.87 28.96C53.79 30.54 52.18 31.33 50.04 31.33C48.02 31.33 46.34 30.57 45 29.05C43.66 27.53 42.99 25.64 42.99 23.38C42.99 21.14 43.66 19.26 45 17.74C46.34 16.22 48.03 15.46 50.07 15.46C52.11 15.46 53.63 16.12 54.63 17.44V9.1ZM50.85 19.12C49.75 19.12 48.83 19.52 48.09 20.32C47.37 21.12 47.01 22.14 47.01 23.38C47.01 24.64 47.37 25.67 48.09 26.47C48.83 27.27 49.75 27.67 50.85 27.67C51.91 27.67 52.81 27.3 53.55 26.56C54.31 25.8 54.69 24.77 54.69 23.47V23.29C54.67 22.03 54.28 21.02 53.52 20.26C52.76 19.5 51.87 19.12 50.85 19.12ZM72.5142 15.46C74.8142 15.46 76.7242 16.2 78.2442 17.68C79.7642 19.14 80.5242 21.04 80.5242 23.38C80.5242 25.74 79.7642 27.65 78.2442 29.11C76.7242 30.59 74.8142 31.33 72.5142 31.33C70.2342 31.33 68.3342 30.59 66.8142 29.11C65.3142 27.65 64.5642 25.74 64.5642 23.38C64.5642 21.06 65.3142 19.16 66.8142 17.68C68.3342 16.2 70.2342 15.46 72.5142 15.46ZM72.5442 19C71.4042 19 70.4542 19.42 69.6942 20.26C68.9542 21.06 68.5842 22.1 68.5842 23.38C68.5842 24.66 68.9542 25.71 69.6942 26.53C70.4542 27.35 71.4042 27.76 72.5442 27.76C73.6842 27.76 74.6242 27.35 75.3642 26.53C76.1042 25.69 76.4742 24.64 76.4742 23.38C76.4742 22.1 76.1142 21.05 75.3942 20.23C74.6742 19.41 73.7242 19 72.5442 19ZM97.4269 9.1H101.327V31H97.9669L97.6669 28.96C96.5869 30.54 94.9769 31.33 92.8369 31.33C90.8169 31.33 89.1369 30.57 87.7969 29.05C86.4569 27.53 85.7869 25.64 85.7869 23.38C85.7869 21.14 86.4569 19.26 87.7969 17.74C89.1369 16.22 90.8269 15.46 92.8669 15.46C94.9069 15.46 96.4269 16.12 97.4269 17.44V9.1ZM93.6469 19.12C92.5469 19.12 91.6269 19.52 90.8869 20.32C90.1669 21.12 89.8069 22.14 89.8069 23.38C89.8069 24.64 90.1669 25.67 90.8869 26.47C91.6269 27.27 92.5469 27.67 93.6469 27.67C94.7069 27.67 95.6069 27.3 96.3469 26.56C97.1069 25.8 97.4869 24.77 97.4869 23.47V23.29C97.4669 22.03 97.0769 21.02 96.3169 20.26C95.5569 19.5 94.6669 19.12 93.6469 19.12ZM115.311 15.46C117.611 15.46 119.521 16.2 121.041 17.68C122.561 19.14 123.321 21.04 123.321 23.38C123.321 25.74 122.561 27.65 121.041 29.11C119.521 30.59 117.611 31.33 115.311 31.33C113.031 31.33 111.131 30.59 109.611 29.11C108.111 27.65 107.361 25.74 107.361 23.38C107.361 21.06 108.111 19.16 109.611 17.68C111.131 16.2 113.031 15.46 115.311 15.46ZM115.341 19C114.201 19 113.251 19.42 112.491 20.26C111.751 21.06 111.381 22.1 111.381 23.38C111.381 24.66 111.751 25.71 112.491 26.53C113.251 27.35 114.201 27.76 115.341 27.76C116.481 27.76 117.421 27.35 118.161 26.53C118.901 25.69 119.271 24.64 119.271 23.38C119.271 22.1 118.911 21.05 118.191 20.23C117.471 19.41 116.521 19 115.341 19ZM129.401 9.1H133.301V31H129.401V9.1ZM146.097 15.46C147.977 15.46 149.447 15.94 150.507 16.9C151.587 17.84 152.127 19.21 152.127 21.01V31H148.797L148.557 29.14C147.597 30.6 146.147 31.33 144.207 31.33C142.827 31.33 141.707 30.93 140.847 30.13C140.007 29.33 139.587 28.27 139.587 26.95C139.587 25.61 139.987 24.58 140.787 23.86C141.587 23.14 142.757 22.65 144.297 22.39L148.227 21.67V21.1C148.227 19.56 147.517 18.79 146.097 18.79C145.437 18.79 144.887 18.98 144.447 19.36C144.027 19.72 143.817 20.2 143.817 20.8H140.037C140.137 19.2 140.737 17.91 141.837 16.93C142.937 15.95 144.357 15.46 146.097 15.46ZM148.227 24.73V24.28L145.197 24.91C144.057 25.17 143.487 25.74 143.487 26.62C143.487 27.08 143.637 27.45 143.937 27.73C144.257 27.99 144.697 28.12 145.257 28.12C146.317 28.12 147.127 27.66 147.687 26.74C148.047 26.18 148.227 25.51 148.227 24.73ZM166.665 15.46C168.245 15.46 169.455 15.96 170.295 16.96C171.155 17.96 171.585 19.35 171.585 21.13V31H167.655V21.97C167.655 20.15 166.935 19.24 165.495 19.24C164.675 19.24 164.015 19.57 163.515 20.23C163.035 20.87 162.795 21.78 162.795 22.96V31H158.925V15.79H162.255L162.555 17.77C163.375 16.23 164.745 15.46 166.665 15.46ZM189.038 9.1H192.938V31H189.578L189.278 28.96C188.198 30.54 186.588 31.33 184.448 31.33C182.428 31.33 180.748 30.57 179.408 29.05C178.068 27.53 177.398 25.64 177.398 23.38C177.398 21.14 178.068 19.26 179.408 17.74C180.748 16.22 182.438 15.46 184.478 15.46C186.518 15.46 188.038 16.12 189.038 17.44V9.1ZM185.258 19.12C184.158 19.12 183.238 19.52 182.498 20.32C181.778 21.12 181.418 22.14 181.418 23.38C181.418 24.64 181.778 25.67 182.498 26.47C183.238 27.27 184.158 27.67 185.258 27.67C186.318 27.67 187.218 27.3 187.958 26.56C188.718 25.8 189.098 24.77 189.098 23.47V23.29C189.078 22.03 188.688 21.02 187.928 20.26C187.168 19.5 186.278 19.12 185.258 19.12Z" fill="white"/>
</svg>
