<svg width="137" height="46" viewBox="0 0 137 46" fill="none" xmlns="http://www.w3.org/2000/svg">
<path d="M25.9677 3.2415C25.9677 13.1154 20.8572 20.9391 11.3282 20.9391C1.79924 20.9391 0 36.2306 0 26.3568C0 16.4829 4.58772 9.20091 14.1167 9.20091C23.6457 9.20091 25.9677 -6.63237 25.9677 3.2415Z" fill="white"/>
<path d="M25.9677 19.564C25.9677 29.4379 20.8572 37.2616 11.3282 37.2616C1.79924 37.2616 0 52.5532 0 42.6793C0 32.8054 4.58772 25.5234 14.1167 25.5234C23.6457 25.5234 25.9677 9.69014 25.9677 19.564Z" fill="#570A7B"/>
<path d="M44.07 9.1H47.94V17.44C48.94 16.12 50.47 15.46 52.53 15.46C54.57 15.46 56.26 16.22 57.6 17.74C58.94 19.26 59.61 21.14 59.61 23.38C59.61 25.62 58.93 27.51 57.57 29.05C56.23 30.57 54.55 31.33 52.53 31.33C50.39 31.33 48.78 30.54 47.7 28.96L47.4 31H44.07V9.1ZM51.72 19.12C50.7 19.12 49.81 19.5 49.05 20.26C48.29 21.02 47.9 22.03 47.88 23.29V23.47C47.88 24.77 48.26 25.8 49.02 26.56C49.76 27.3 50.66 27.67 51.72 27.67C52.82 27.67 53.73 27.27 54.45 26.47C55.19 25.67 55.56 24.64 55.56 23.38C55.56 22.14 55.19 21.12 54.45 20.32C53.73 19.52 52.82 19.12 51.72 19.12ZM65.7035 15.79H69.6035V31H65.7035V15.79ZM67.6535 9.01C68.2935 9.01 68.8435 9.24 69.3035 9.7C69.7835 10.14 70.0235 10.68 70.0235 11.32C70.0235 11.98 69.7935 12.53 69.3335 12.97C68.8735 13.41 68.3135 13.63 67.6535 13.63C66.9935 13.63 66.4335 13.41 65.9735 12.97C65.5135 12.53 65.2835 11.98 65.2835 11.32C65.2835 10.68 65.5135 10.14 65.9735 9.7C66.4335 9.24 66.9935 9.01 67.6535 9.01ZM84.9795 15.64V19.54C83.7395 19.54 82.7295 19.84 81.9495 20.44C81.1895 21.04 80.7795 21.98 80.7195 23.26V31H76.8195V15.79H80.1795L80.5395 18.22C81.1795 16.5 82.6595 15.64 84.9795 15.64ZM101.101 9.1H105.001V31H101.641L101.341 28.96C100.261 30.54 98.6507 31.33 96.5107 31.33C94.4907 31.33 92.8107 30.57 91.4707 29.05C90.1307 27.53 89.4607 25.64 89.4607 23.38C89.4607 21.14 90.1307 19.26 91.4707 17.74C92.8107 16.22 94.5007 15.46 96.5407 15.46C98.5807 15.46 100.101 16.12 101.101 17.44V9.1ZM97.3207 19.12C96.2207 19.12 95.3007 19.52 94.5607 20.32C93.8407 21.12 93.4807 22.14 93.4807 23.38C93.4807 24.64 93.8407 25.67 94.5607 26.47C95.3007 27.27 96.2207 27.67 97.3207 27.67C98.3807 27.67 99.2807 27.3 100.021 26.56C100.781 25.8 101.161 24.77 101.161 23.47V23.29C101.141 22.03 100.751 21.02 99.9907 20.26C99.2307 19.5 98.3407 19.12 97.3207 19.12ZM112.145 9.1H116.045V31H112.145V9.1ZM132.141 15.79H136.371L128.541 37.45H124.491L126.801 30.82L121.401 15.79H125.601L128.571 25.12L128.871 26.44L129.171 25.12L132.141 15.79Z" fill="white"/>
</svg>
